<?xml version="1.0" encoding="UTF-8" standalone="no"?>
<!-- Created with Inkscape (http://www.inkscape.org/) -->

<svg
   xmlns:dc="http://purl.org/dc/elements/1.1/"
   xmlns:cc="http://creativecommons.org/ns#"
   xmlns:rdf="http://www.w3.org/1999/02/22-rdf-syntax-ns#"
   xmlns:svg="http://www.w3.org/2000/svg"
   xmlns="http://www.w3.org/2000/svg"
   xmlns:sodipodi="http://sodipodi.sourceforge.net/DTD/sodipodi-0.dtd"
   xmlns:inkscape="http://www.inkscape.org/namespaces/inkscape"
   version="1.1"
   width="24"
   height="24"
   id="svg7384"
   inkscape:version="0.91 r13725"
   sodipodi:docname="login2.svg">
  <sodipodi:namedview
     pagecolor="#ffffff"
     bordercolor="#666666"
     borderopacity="1"
     objecttolerance="10"
     gridtolerance="10"
     guidetolerance="10"
     inkscape:pageopacity="0"
     inkscape:pageshadow="2"
     inkscape:window-width="1366"
     inkscape:window-height="718"
     id="namedview8"
     showgrid="false"
     inkscape:zoom="22.75"
     inkscape:cx="12"
     inkscape:cy="12"
     inkscape:window-x="0"
     inkscape:window-y="24"
     inkscape:window-maximized="1"
     inkscape:current-layer="svg7384" />
  <title
     id="title9167">Gnome Symbolic Icon Theme</title>
  <defs
     id="defs11" />
  <metadata
     id="metadata90">
    <rdf:RDF>
      <cc:Work
         rdf:about="">
        <dc:format>image/svg+xml</dc:format>
        <dc:type
           rdf:resource="http://purl.org/dc/dcmitype/StillImage" />
        <dc:title>Gnome Symbolic Icon Theme</dc:title>
      </cc:Work>
    </rdf:RDF>
  </metadata>
  <rect
     style="fill:#ff0000;fill-opacity:1;stroke:none"
     id="rect2985"
     width="22.383728"
     height="22.022383"
     x="0.80813599"
     y="0.98880863"
     ry="2.4267735" />
  <path
     d="m 12,20.22514 c 4.54262,0 8.225141,-3.682521 8.225141,-8.22514 0,-4.5426198 -3.682521,-8.2251408 -8.225141,-8.2251408 -4.5426198,0 -8.2251408,3.682521 -8.2251408,8.2251408 0,4.542619 3.682521,8.22514 8.2251408,8.22514 z m 0,-2.056285 C 8.5930356,18.168855 5.8311444,15.406965 5.8311444,12 5.8311444,8.5930356 8.5930356,5.8311444 12,5.8311444 c 3.406966,0 6.168856,2.7618912 6.168856,6.1688556 0,3.406965 -2.76189,6.168855 -6.168856,6.168855 z"
     inkscape:connector-curvature="0"
     id="path2991"
     style="color:#bebebe;display:inline;overflow:visible;visibility:visible;fill:#f9f9f9;fill-opacity:1;fill-rule:nonzero;stroke:none;stroke-width:1;marker:none;enable-background:accumulate" />
  <path
     style="opacity:1;fill:#ffffff;fill-opacity:1;stroke:none;stroke-width:1.10000002;stroke-miterlimit:4;stroke-dasharray:none;stroke-dashoffset:0;stroke-opacity:0.52941165"
     d="M 9.1733418,7.8290483 C 8.8778938,7.8263718 8.5819431,7.9362111 8.3535044,8.1605481 L 8.2269643,8.2835236 C 7.770087,8.7321966 7.7640328,9.4609744 8.2127063,9.9178516 l 2.0282057,2.0656334 -2.0656327,2.028208 c -0.4568774,0.44867 -0.4629314,1.177449 -0.014257,1.634325 l 0.1229753,0.12654 c 0.4486733,0.456875 1.1774511,0.462934 1.6343279,0.01426 l 2.0656355,-2.028202 2.028204,2.065631 c 0.448673,0.456877 1.177452,0.46293 1.634329,0.01426 l 0.12654,-0.122975 c 0.456876,-0.448676 0.462934,-1.17745 0.01426,-1.634326 L 13.759085,12.015565 15.824717,9.9873626 C 16.281599,9.5386877 16.28765,8.8099099 15.838981,8.3530331 L 15.716002,8.2264916 C 15.267325,7.7696142 14.538546,7.7635601 14.08167,8.2122335 L 12.016036,10.240442 9.9878319,8.1748056 C 9.7634958,7.9463676 9.46879,7.8317248 9.1733418,7.8290483 Z"
     id="rect4143"
     inkscape:connector-curvature="0" />
</svg>
