<?xml version="1.0" encoding="UTF-8" standalone="no"?>
<!-- Created with Inkscape (http://www.inkscape.org/) -->

<svg
   xmlns:dc="http://purl.org/dc/elements/1.1/"
   xmlns:cc="http://creativecommons.org/ns#"
   xmlns:rdf="http://www.w3.org/1999/02/22-rdf-syntax-ns#"
   xmlns:svg="http://www.w3.org/2000/svg"
   xmlns="http://www.w3.org/2000/svg"
   xmlns:sodipodi="http://sodipodi.sourceforge.net/DTD/sodipodi-0.dtd"
   xmlns:inkscape="http://www.inkscape.org/namespaces/inkscape"
   version="1.1"
   width="24"
   height="24"
   id="svg7384"
   inkscape:version="0.91 r13725"
   sodipodi:docname="login.svg">
  <sodipodi:namedview
     pagecolor="#ffffff"
     bordercolor="#666666"
     borderopacity="1"
     objecttolerance="10"
     gridtolerance="10"
     guidetolerance="10"
     inkscape:pageopacity="0"
     inkscape:pageshadow="2"
     inkscape:window-width="1366"
     inkscape:window-height="718"
     id="namedview8"
     showgrid="false"
     inkscape:zoom="22.75"
     inkscape:cx="12"
     inkscape:cy="12"
     inkscape:window-x="0"
     inkscape:window-y="24"
     inkscape:window-maximized="1"
     inkscape:current-layer="svg7384" />
  <title
     id="title9167">Gnome Symbolic Icon Theme</title>
  <defs
     id="defs11" />
  <metadata
     id="metadata90">
    <rdf:RDF>
      <cc:Work
         rdf:about="">
        <dc:format>image/svg+xml</dc:format>
        <dc:type
           rdf:resource="http://purl.org/dc/dcmitype/StillImage" />
        <dc:title>Gnome Symbolic Icon Theme</dc:title>
      </cc:Work>
    </rdf:RDF>
  </metadata>
  <rect
     style="fill:#ff6600;fill-opacity:1;stroke:none"
     id="rect2985"
     width="22.383728"
     height="22.022383"
     x="0.80813599"
     y="0.98880863"
     ry="2.4267735" />
  <path
     d="m 12,20.22514 c 4.54262,0 8.225141,-3.682521 8.225141,-8.22514 0,-4.5426198 -3.682521,-8.2251408 -8.225141,-8.2251408 -4.5426198,0 -8.2251408,3.682521 -8.2251408,8.2251408 0,4.542619 3.682521,8.22514 8.2251408,8.22514 z m 0,-2.056285 C 8.5930356,18.168855 5.8311444,15.406965 5.8311444,12 5.8311444,8.5930356 8.5930356,5.8311444 12,5.8311444 c 3.406966,0 6.168856,2.7618912 6.168856,6.1688556 0,3.406965 -2.76189,6.168855 -6.168856,6.168855 z"
     inkscape:connector-curvature="0"
     id="path2991"
     style="color:#bebebe;display:inline;overflow:visible;visibility:visible;fill:#f9f9f9;fill-opacity:1;fill-rule:nonzero;stroke:none;stroke-width:1;marker:none;enable-background:accumulate" />
  <path
     d="M 7.8874294,13.028142 12,13.028142 12,16.11257 16.112571,12 12,7.8874297 l 0,3.0844273 -4.1125706,0 z"
     inkscape:connector-curvature="0"
     id="rect3005"
     style="color:#bebebe;display:inline;overflow:visible;visibility:visible;fill:#f9f9f9;fill-opacity:1;fill-rule:nonzero;stroke:none;stroke-width:1;marker:none;enable-background:accumulate" />
</svg>
